<svg width="5111" height="5108" viewBox="0 0 5111 5108" fill="none" xmlns="http://www.w3.org/2000/svg">
<rect x="2381.95" y="2005.45" width="246" height="1267.28" rx="38" transform="rotate(-45 2381.95 2005.45)" fill="url(#paint0_linear_55_254)"/>
<path d="M2231.53 3306.01C2216.69 3291.17 2216.69 3267.11 2231.53 3252.27L3103.63 2380.17L3277.58 2554.12L2405.48 3426.22C2390.64 3441.06 2366.58 3441.06 2351.74 3426.22L2231.53 3306.01Z" fill="url(#paint1_linear_55_254)"/>
<path d="M1681.4 2407.99C1666.56 2393.15 1666.56 2369.09 1681.4 2354.25L1801.61 2234.04C1816.45 2219.2 1840.51 2219.2 1855.35 2234.04L2724 3102.69L2550.05 3276.64L1681.4 2407.99Z" fill="url(#paint2_linear_55_254)"/>
<path d="M1829.52 2555.81L2702.78 1682.55C2717.62 1667.71 2741.68 1667.71 2756.52 1682.55L2876.73 1802.75C2891.57 1817.59 2891.57 1841.66 2876.73 1856.5L2003.47 2729.76L1829.52 2555.81Z" fill="url(#paint3_linear_55_254)"/>
<path fill-rule="evenodd" clip-rule="evenodd" d="M2057.88 2254.5C2028.98 2283.4 1982.13 2283.4 1953.23 2254.5L1706.32 2007.59C1705.97 2007.24 1705.97 2006.66 1706.32 2006.3C1706.68 2005.94 1706.68 2005.36 1706.32 2005C1704.91 2003.61 1703.5 2002.21 1702.1 2000.81C1525 1823.71 1451.44 1582.28 1481.41 1351.74C1673.21 1430.41 1901.78 1391.87 2057.53 1236.11C2207.97 1085.68 2249.06 867.301 2180.8 679.751C2401.88 659.897 2629.86 734.587 2799.09 903.819C2800.71 905.438 2802.32 907.062 2803.92 908.692C2803.92 908.695 2803.93 908.695 2803.93 908.692C2803.94 908.689 2803.94 908.689 2803.94 908.692L3051.49 1156.24C3080.39 1185.14 3080.39 1231.99 3051.49 1260.89L2057.88 2254.5Z" fill="#4A96FD"/>
<g filter="url(#filter0_d_55_254)">
<circle r="448.369" transform="matrix(-0.707107 0.707107 0.707107 0.707107 1674.39 854.968)" fill="#4A96FD"/>
</g>
<path d="M1826.76 2129.41C1826.76 2129.41 2179.76 1658.91 2290.26 1328.41C2400.76 997.908 2429.75 697.408 2429.75 697.408C2429.75 697.408 2516.11 716.722 2607.25 763.408C2661.82 791.363 2718.77 831.753 2759.75 868.408C2794.75 899.712 2819.18 925.946 2847.18 953.446C2866.37 972.292 2979.99 1082.47 3049.6 1149.95C3079.66 1179.08 3080.04 1227.16 3050.47 1256.78L2056.29 2252.78C2027.01 2282.11 1979.48 2282.13 1950.18 2252.83L1826.76 2129.41Z" fill="white" fill-opacity="0.2"/>
<path fill-rule="evenodd" clip-rule="evenodd" d="M2254.5 3051.37C2283.4 3080.27 2283.4 3127.12 2254.5 3156.02L2007.59 3402.93C2007.24 3403.28 2006.66 3403.28 2006.3 3402.93C2005.94 3402.57 2005.36 3402.57 2005 3402.93C2003.61 3404.34 2002.22 3405.75 2000.81 3407.15C1823.71 3584.25 1582.28 3657.81 1351.74 3627.84C1430.41 3436.04 1391.87 3207.47 1236.11 3051.72C1085.68 2901.28 867.302 2860.19 679.751 2928.45C659.898 2707.37 734.587 2479.39 903.819 2310.16C905.438 2308.54 907.062 2306.93 908.692 2305.33C908.695 2305.33 908.695 2305.32 908.692 2305.32C908.689 2305.31 908.689 2305.31 908.692 2305.31L1156.24 2057.76C1185.14 2028.86 1231.99 2028.86 1260.89 2057.76L2254.5 3051.37Z" fill="#508BFE"/>
<g filter="url(#filter1_d_55_254)">
<circle r="448.369" transform="matrix(0.707107 0.707107 0.707107 -0.707107 854.968 3434.86)" fill="#508BFE"/>
</g>
<path d="M2129.41 3282.49C2129.41 3282.49 1658.91 2929.49 1328.41 2818.99C997.909 2708.49 697.409 2679.5 697.409 2679.5C697.409 2679.5 716.723 2593.14 763.409 2502C791.364 2447.43 831.754 2390.48 868.409 2349.5C899.713 2314.5 925.947 2290.07 953.447 2262.07C972.293 2242.88 1082.47 2129.25 1149.95 2059.64C1179.08 2029.59 1227.16 2029.21 1256.78 2058.78L2252.78 3052.96C2282.11 3082.24 2282.14 3129.77 2252.83 3159.07L2129.41 3282.49Z" fill="white" fill-opacity="0.2"/>
<path fill-rule="evenodd" clip-rule="evenodd" d="M3050.37 2853.33C3079.27 2824.43 3126.12 2824.43 3155.02 2853.33L3401.93 3100.23C3402.28 3100.59 3402.28 3101.17 3401.93 3101.52C3401.57 3101.88 3401.57 3102.47 3401.93 3102.82C3403.34 3104.21 3404.75 3105.61 3406.15 3107.01C3583.25 3284.11 3656.82 3525.54 3626.84 3756.09C3435.05 3677.42 3206.47 3715.96 3050.72 3871.71C2900.28 4022.15 2859.19 4240.52 2927.45 4428.07C2706.37 4447.93 2478.39 4373.24 2309.16 4204.01C2307.54 4202.39 2305.93 4200.76 2304.33 4199.13C2304.33 4199.13 2304.32 4199.13 2304.32 4199.13C2304.32 4199.14 2304.31 4199.14 2304.31 4199.13L2056.76 3951.59C2027.86 3922.69 2027.86 3875.83 2056.76 3846.93L3050.37 2853.33Z" fill="#6E7EFF"/>
<g filter="url(#filter2_d_55_254)">
<circle r="448.369" transform="matrix(0.707107 -0.707107 -0.707107 -0.707107 3433.86 4252.86)" fill="#6E7EFF"/>
</g>
<path d="M3281.49 2978.42C3281.49 2978.42 2928.49 3448.92 2817.99 3779.42C2707.49 4109.92 2678.5 4410.42 2678.5 4410.42C2678.5 4410.42 2592.14 4391.1 2501 4344.42C2446.43 4316.46 2389.48 4276.07 2348.5 4239.42C2313.5 4208.11 2289.07 4181.88 2261.07 4154.38C2241.88 4135.53 2128.26 4025.35 2058.65 3957.88C2028.59 3928.74 2028.21 3880.66 2057.78 3851.04L3051.96 2855.05C3081.24 2825.71 3128.77 2825.69 3158.08 2855L3281.49 2978.42Z" fill="white" fill-opacity="0.2"/>
<path fill-rule="evenodd" clip-rule="evenodd" d="M2856.33 2056.88C2827.43 2027.98 2827.43 1981.12 2856.33 1952.22L3103.23 1705.32C3103.59 1704.96 3104.17 1704.96 3104.53 1705.32C3104.89 1705.68 3105.47 1705.67 3105.83 1705.31C3107.22 1703.9 3108.61 1702.49 3110.02 1701.09C3287.12 1523.99 3528.55 1450.43 3759.09 1480.41C3680.42 1672.2 3718.96 1900.78 3874.71 2056.53C4025.15 2206.96 4243.53 2248.05 4431.08 2179.8C4450.93 2400.88 4376.24 2628.85 4207.01 2798.08C4205.39 2799.7 4203.77 2801.31 4202.14 2802.92C4202.13 2802.92 4202.13 2802.92 4202.14 2802.93C4202.14 2802.93 4202.14 2802.93 4202.14 2802.94L3954.59 3050.48C3925.69 3079.38 3878.84 3079.38 3849.94 3050.48L2856.33 2056.88Z" fill="#4560FD"/>
<g filter="url(#filter3_d_55_254)">
<circle r="448.369" transform="matrix(-0.707107 -0.707107 -0.707107 0.707107 4255.86 1673.39)" fill="#4560FD"/>
</g>
<path d="M2981.42 1825.75C2981.42 1825.75 3451.92 2178.75 3782.42 2289.25C4112.92 2399.75 4413.42 2428.74 4413.42 2428.74C4413.42 2428.74 4394.11 2515.1 4347.42 2606.24C4319.46 2660.82 4279.07 2717.76 4242.42 2758.74C4211.11 2793.74 4184.88 2818.17 4157.38 2846.17C4138.53 2865.36 4028.36 2978.99 3960.88 3048.6C3931.75 3078.65 3883.67 3079.04 3854.04 3049.47L2858.05 2055.28C2828.71 2026 2828.69 1978.48 2858 1949.17L2981.42 1825.75Z" fill="white" fill-opacity="0.2"/>
<defs>
<filter id="filter0_d_55_254" x="1214.02" y="398.6" width="920.737" height="920.736" filterUnits="userSpaceOnUse" color-interpolation-filters="sRGB">
<feFlood flood-opacity="0" result="BackgroundImageFix"/>
<feColorMatrix in="SourceAlpha" type="matrix" values="0 0 0 0 0 0 0 0 0 0 0 0 0 0 0 0 0 0 127 0" result="hardAlpha"/>
<feOffset dy="4"/>
<feGaussianBlur stdDeviation="6"/>
<feComposite in2="hardAlpha" operator="out"/>
<feColorMatrix type="matrix" values="0 0 0 0 0 0 0 0 0 0 0 0 0 0 0 0 0 0 0.25 0"/>
<feBlend mode="normal" in2="BackgroundImageFix" result="effect1_dropShadow_55_254"/>
<feBlend mode="normal" in="SourceGraphic" in2="effect1_dropShadow_55_254" result="shape"/>
</filter>
<filter id="filter1_d_55_254" x="394.6" y="2978.49" width="920.737" height="920.738" filterUnits="userSpaceOnUse" color-interpolation-filters="sRGB">
<feFlood flood-opacity="0" result="BackgroundImageFix"/>
<feColorMatrix in="SourceAlpha" type="matrix" values="0 0 0 0 0 0 0 0 0 0 0 0 0 0 0 0 0 0 127 0" result="hardAlpha"/>
<feOffset dy="4"/>
<feGaussianBlur stdDeviation="6"/>
<feComposite in2="hardAlpha" operator="out"/>
<feColorMatrix type="matrix" values="0 0 0 0 0 0 0 0 0 0 0 0 0 0 0 0 0 0 0.25 0"/>
<feBlend mode="normal" in2="BackgroundImageFix" result="effect1_dropShadow_55_254"/>
<feBlend mode="normal" in="SourceGraphic" in2="effect1_dropShadow_55_254" result="shape"/>
</filter>
<filter id="filter2_d_55_254" x="2973.49" y="3796.49" width="920.737" height="920.736" filterUnits="userSpaceOnUse" color-interpolation-filters="sRGB">
<feFlood flood-opacity="0" result="BackgroundImageFix"/>
<feColorMatrix in="SourceAlpha" type="matrix" values="0 0 0 0 0 0 0 0 0 0 0 0 0 0 0 0 0 0 127 0" result="hardAlpha"/>
<feOffset dy="4"/>
<feGaussianBlur stdDeviation="6"/>
<feComposite in2="hardAlpha" operator="out"/>
<feColorMatrix type="matrix" values="0 0 0 0 0 0 0 0 0 0 0 0 0 0 0 0 0 0 0.25 0"/>
<feBlend mode="normal" in2="BackgroundImageFix" result="effect1_dropShadow_55_254"/>
<feBlend mode="normal" in="SourceGraphic" in2="effect1_dropShadow_55_254" result="shape"/>
</filter>
<filter id="filter3_d_55_254" x="3795.49" y="1217.02" width="920.737" height="920.738" filterUnits="userSpaceOnUse" color-interpolation-filters="sRGB">
<feFlood flood-opacity="0" result="BackgroundImageFix"/>
<feColorMatrix in="SourceAlpha" type="matrix" values="0 0 0 0 0 0 0 0 0 0 0 0 0 0 0 0 0 0 127 0" result="hardAlpha"/>
<feOffset dy="4"/>
<feGaussianBlur stdDeviation="6"/>
<feComposite in2="hardAlpha" operator="out"/>
<feColorMatrix type="matrix" values="0 0 0 0 0 0 0 0 0 0 0 0 0 0 0 0 0 0 0.25 0"/>
<feBlend mode="normal" in2="BackgroundImageFix" result="effect1_dropShadow_55_254"/>
<feBlend mode="normal" in="SourceGraphic" in2="effect1_dropShadow_55_254" result="shape"/>
</filter>
<linearGradient id="paint0_linear_55_254" x1="2504.95" y1="2005.45" x2="2504.95" y2="3272.72" gradientUnits="userSpaceOnUse">
<stop stop-color="#4BA8FD"/>
<stop offset="1" stop-color="#4457FC"/>
</linearGradient>
<linearGradient id="paint1_linear_55_254" x1="2304.58" y1="3339.18" x2="3171.08" y2="2497.18" gradientUnits="userSpaceOnUse">
<stop stop-color="#7381FF"/>
<stop offset="1" stop-color="#4560FD"/>
</linearGradient>
<linearGradient id="paint2_linear_55_254" x1="1741.5" y1="2294.14" x2="2637.03" y2="3189.66" gradientUnits="userSpaceOnUse">
<stop stop-color="#4B8FFD"/>
<stop offset="1" stop-color="#6877FF"/>
</linearGradient>
<linearGradient id="paint3_linear_55_254" x1="2794.6" y1="1770.65" x2="1906.91" y2="2638.88" gradientUnits="userSpaceOnUse">
<stop stop-color="#4A97FD"/>
<stop offset="1" stop-color="#498EFD"/>
</linearGradient>
</defs>
</svg>
