<svg width="18145" height="5481" viewBox="0 0 18145 5481" fill="none" xmlns="http://www.w3.org/2000/svg">
<rect width="18145" height="5481" fill="white"/>
<rect width="253.146" height="1304.09" rx="38" transform="matrix(0.721709 -0.692197 0.721709 0.692197 2737.03 2188.41)" fill="url(#paint0_linear_57_170)"/>
<path d="M2578.25 3497.78C2563.1 3483.25 2563.1 3459.7 2578.25 3445.17L3495.01 2565.89L3677.71 2741.12L2760.95 3620.4C2745.8 3634.92 2721.24 3634.92 2706.1 3620.4L2578.25 3497.78Z" fill="url(#paint1_linear_57_170)"/>
<path d="M2000.45 2593.15C1985.3 2578.62 1985.3 2555.07 2000.45 2540.54L2128.3 2417.92C2143.44 2403.4 2168 2403.4 2183.14 2417.92L3096.29 3293.72L2913.59 3468.95L2000.45 2593.15Z" fill="url(#paint2_linear_57_170)"/>
<path d="M2156.81 2742.82L3074.8 1862.38C3089.94 1847.85 3114.5 1847.85 3129.65 1862.38L3257.5 1985C3272.64 1999.53 3272.64 2023.08 3257.5 2037.61L2339.51 2918.05L2156.81 2742.82Z" fill="url(#paint3_linear_57_170)"/>
<path fill-rule="evenodd" clip-rule="evenodd" d="M2395.11 2440.79C2365.61 2469.08 2317.79 2469.08 2288.3 2440.79L2027.42 2190.58C2027.05 2190.22 2027.05 2189.64 2027.42 2189.28C2027.8 2188.92 2027.79 2188.33 2027.41 2187.97C2025.93 2186.57 2024.45 2185.16 2022.98 2183.75C1836.97 2005.35 1759.71 1762.14 1791.2 1529.9C1992.64 1609.15 2232.71 1570.33 2396.3 1413.43C2554.3 1261.89 2597.46 1041.91 2525.77 852.977C2757.97 832.978 2997.41 908.216 3175.15 1078.69C3176.85 1080.32 3178.54 1081.96 3180.23 1083.6C3180.23 1083.6 3180.23 1083.6 3180.23 1083.6C3180.23 1083.6 3180.24 1083.6 3180.24 1083.6C3180.24 1083.6 3180.24 1083.6 3180.24 1083.6C3180.25 1083.6 3180.25 1083.6 3180.25 1083.6L3441.8 1334.45C3471.3 1362.74 3471.3 1408.61 3441.8 1436.9L2395.11 2440.79Z" fill="#4A96FD"/>
<g filter="url(#filter0_d_57_170)">
<circle r="461.394" transform="matrix(-0.721709 0.692196 0.721709 0.692197 1993.88 1029.48)" fill="#4A96FD"/>
</g>
<path d="M2153.91 2313.29C2153.91 2313.29 2524.67 1839.33 2640.73 1506.4C2756.78 1173.47 2787.24 870.763 2787.24 870.763C2787.24 870.763 2877.94 890.218 2973.66 937.248C3030.98 965.408 3090.79 1006.1 3133.83 1043.02C3170.6 1074.55 3196.25 1100.98 3225.66 1128.68C3245.97 1147.81 3366.95 1260.32 3439.9 1328.15C3470.58 1356.66 3470.96 1403.72 3440.77 1432.72L2393.42 2439.07C2363.53 2467.79 2315.03 2467.82 2285.12 2439.13L2153.91 2313.29Z" fill="white" fill-opacity="0.2"/>
<path fill-rule="evenodd" clip-rule="evenodd" d="M2604.72 3243.52C2634.22 3271.81 2634.22 3317.67 2604.72 3345.96L2343.84 3596.17C2343.47 3596.53 2342.86 3596.53 2342.49 3596.17C2342.11 3595.81 2341.5 3595.81 2341.12 3596.18C2339.66 3597.6 2338.2 3599.02 2336.72 3600.43C2150.71 3778.83 1897.14 3852.93 1655 3822.74C1737.63 3629.53 1697.15 3399.28 1533.56 3242.38C1375.56 3090.84 1146.19 3049.45 949.211 3118.21C928.358 2895.5 1006.8 2665.85 1184.55 2495.37C1186.25 2493.74 1187.96 2492.12 1189.67 2490.5C1189.67 2490.5 1189.67 2490.5 1189.67 2490.49C1189.66 2490.49 1189.66 2490.49 1189.67 2490.48L1451.22 2239.63C1480.71 2211.34 1528.53 2211.34 1558.03 2239.63L2604.72 3243.52Z" fill="#508BFE"/>
<g filter="url(#filter1_d_57_170)">
<circle r="461.394" transform="matrix(0.721709 0.692197 0.721709 -0.692196 1133.24 3628.34)" fill="#508BFE"/>
</g>
<path d="M2471.79 3474.85C2471.79 3474.85 1977.62 3119.26 1630.5 3007.94C1283.37 2896.63 967.757 2867.42 967.757 2867.42C967.757 2867.42 988.042 2780.43 1037.08 2688.62C1066.44 2633.65 1108.86 2576.28 1147.36 2535C1180.24 2499.74 1207.79 2475.13 1236.67 2446.93C1256.62 2427.45 1373.92 2311.43 1444.63 2241.46C1474.37 2212.03 1523.43 2211.66 1553.67 2240.61L2602.94 3245.14C2632.88 3273.8 2632.9 3320.33 2602.98 3349.02L2471.79 3474.85Z" fill="white" fill-opacity="0.2"/>
<path fill-rule="evenodd" clip-rule="evenodd" d="M3440.63 3041.04C3470.12 3012.75 3517.94 3012.76 3547.44 3041.04L3808.32 3291.25C3808.69 3291.61 3808.69 3292.2 3808.32 3292.56C3807.94 3292.92 3807.94 3293.5 3808.32 3293.86C3809.8 3295.26 3811.28 3296.67 3812.76 3298.08C3998.76 3476.49 4076.03 3719.69 4044.54 3951.93C3843.1 3872.68 3603.03 3911.51 3439.44 4068.4C3281.44 4219.94 3238.28 4439.93 3309.97 4628.86C3077.77 4648.86 2838.33 4573.62 2660.58 4403.14C2659.73 4402.32 2658.88 4401.51 2658.04 4400.69C2657.19 4399.87 2656.35 4399.05 2655.51 4398.23C2655.51 4398.23 2655.5 4398.23 2655.5 4398.23C2655.49 4398.24 2655.49 4398.24 2655.49 4398.23L2393.94 4147.38C2364.44 4119.09 2364.44 4073.22 2393.94 4044.93L3440.63 3041.04Z" fill="#6E7EFF"/>
<g filter="url(#filter2_d_57_170)">
<ellipse rx="461.394" ry="461.394" transform="matrix(0.721709 -0.692196 -0.721709 -0.692197 3841.85 4452.35)" fill="#6E7EFF"/>
</g>
<path d="M3681.83 3168.54C3681.83 3168.54 3311.07 3642.5 3195.01 3975.43C3078.95 4308.36 3048.5 4611.07 3048.5 4611.07C3048.5 4611.07 2957.8 4591.61 2862.07 4544.58C2804.75 4516.42 2744.95 4475.73 2701.9 4438.81C2665.14 4407.28 2639.48 4380.85 2610.07 4353.15C2589.77 4334.02 2468.79 4221.51 2395.83 4153.68C2365.16 4125.17 2364.78 4078.11 2394.97 4049.11L3442.32 3042.76C3472.2 3014.04 3520.71 3014.01 3550.62 3042.7L3681.83 3168.54Z" fill="white" fill-opacity="0.2"/>
<path fill-rule="evenodd" clip-rule="evenodd" d="M3233.72 2238.74C3204.23 2210.45 3204.23 2164.58 3233.72 2136.29L3494.6 1886.08C3494.97 1885.72 3495.58 1885.72 3495.96 1886.08C3496.33 1886.44 3496.94 1886.44 3497.32 1886.08C3498.78 1884.65 3500.25 1883.24 3501.72 1881.82C3687.73 1703.42 3941.3 1629.32 4183.44 1659.52C4100.82 1852.72 4141.3 2082.98 4304.88 2239.87C4462.89 2391.41 4692.25 2432.81 4889.23 2364.05C4910.08 2586.75 4831.64 2816.4 4653.89 2986.88C4652.19 2988.51 4650.49 2990.13 4648.77 2991.75C4648.77 2991.75 4648.77 2991.76 4648.77 2991.76C4648.78 2991.76 4648.78 2991.77 4648.77 2991.77L4387.22 3242.62C4357.73 3270.91 4309.91 3270.91 4280.41 3242.62L3233.72 2238.74Z" fill="#4560FD"/>
<g filter="url(#filter3_d_57_170)">
<ellipse rx="461.394" ry="461.394" transform="matrix(-0.721709 -0.692197 -0.721709 0.692196 4705.2 1853.92)" fill="#4560FD"/>
</g>
<path d="M3366.65 2007.4C3366.65 2007.4 3860.82 2362.99 4207.95 2474.3C4555.07 2585.62 4870.69 2614.82 4870.69 2614.82C4870.69 2614.82 4850.4 2701.82 4801.37 2793.63C4772 2848.6 4729.58 2905.96 4691.08 2947.25C4658.21 2982.51 4630.65 3007.12 4601.77 3035.32C4581.83 3054.8 4464.52 3170.82 4393.81 3240.79C4364.07 3270.22 4315.01 3270.59 4284.77 3241.64L3235.5 2237.11C3205.56 2208.44 3205.54 2161.92 3235.46 2133.23L3366.65 2007.4Z" fill="white" fill-opacity="0.2"/>
<g filter="url(#filter4_d_57_170)">
<path d="M6644.4 4050C7396.8 4050 7918.8 3574.8 7918.8 2851.2C7918.8 2127.6 7396.8 1648.8 6644.4 1648.8H5697.6V4050H6644.4ZM6644.4 3600H6208.8V2098.8H6644.4C7137.6 2098.8 7396.8 2426.4 7396.8 2851.2C7396.8 3258 7119.6 3600 6644.4 3600ZM9077.18 4093.2C9653.18 4093.2 9998.78 3675.6 9998.78 3178.8C9998.78 2685.6 9653.18 2268 9077.18 2268C8504.78 2268 8159.18 2685.6 8159.18 3178.8C8159.18 3675.6 8504.78 4093.2 9077.18 4093.2ZM9077.18 3686.4C8792.78 3686.4 8634.38 3452.4 8634.38 3178.8C8634.38 2908.8 8792.78 2674.8 9077.18 2674.8C9361.58 2674.8 9523.58 2908.8 9523.58 3178.8C9523.58 3452.4 9361.58 3686.4 9077.18 3686.4ZM11295.6 4050C12048 4050 12570 3574.8 12570 2851.2C12570 2127.6 12048 1648.8 11295.6 1648.8H10348.8V4050H11295.6ZM11295.6 3600H10860V2098.8H11295.6C11788.8 2098.8 12048 2426.4 12048 2851.2C12048 3258 11770.8 3600 11295.6 3600ZM15048.9 4050L14123.7 1648.8H13482.9L12554.1 4050H13137.3L13288.5 3643.2H14318.1L14465.7 4050H15048.9ZM14177.7 3193.2H13428.9L13803.3 2160L14177.7 3193.2ZM16285.2 4093.2C17012.4 4093.2 17541.6 3574.8 17541.6 2851.2C17541.6 2127.6 17012.4 1609.2 16285.2 1609.2C15561.6 1609.2 15032.4 2127.6 15032.4 2851.2C15032.4 3574.8 15561.6 4093.2 16285.2 4093.2ZM16285.2 3639.6C15842.4 3639.6 15558 3297.6 15558 2851.2C15558 2401.2 15842.4 2062.8 16285.2 2062.8C16728 2062.8 17016 2401.2 17016 2851.2C17016 3297.6 16728 3639.6 16285.2 3639.6Z" fill="#6B8DFA"/>
<path d="M5697.6 1648.8V1647.8H5696.6V1648.8H5697.6ZM5697.6 4050H5696.6V4051H5697.6V4050ZM6208.8 3600H6207.8V3601H6208.8V3600ZM6208.8 2098.8V2097.8H6207.8V2098.8H6208.8ZM6644.4 4051C7020.81 4051 7339.67 3932.13 7564.43 3722.68C7789.2 3513.23 7919.8 3213.25 7919.8 2851.2H7917.8C7917.8 3212.75 7787.4 3512.17 7563.07 3721.22C7338.73 3930.27 7020.39 4049 6644.4 4049V4051ZM7919.8 2851.2C7919.8 2489.15 7789.2 2188.28 7564.43 1977.92C7339.67 1767.57 7020.81 1647.8 6644.4 1647.8V1649.8C7020.39 1649.8 7338.73 1769.43 7563.07 1979.38C7787.4 2189.32 7917.8 2489.65 7917.8 2851.2H7919.8ZM6644.4 1647.8H5697.6V1649.8H6644.4V1647.8ZM5696.6 1648.8V4050H5698.6V1648.8H5696.6ZM5697.6 4051H6644.4V4049H5697.6V4051ZM6644.4 3599H6208.8V3601H6644.4V3599ZM6209.8 3600V2098.8H6207.8V3600H6209.8ZM6208.8 2099.8H6644.4V2097.8H6208.8V2099.8ZM6644.4 2099.8C6890.77 2099.8 7078.59 2181.62 7204.82 2316.38C7331.06 2451.16 7395.8 2639 7395.8 2851.2H7397.8C7397.8 2638.6 7332.94 2450.24 7206.28 2315.02C7079.61 2179.78 6891.23 2097.8 6644.4 2097.8V2099.8ZM7395.8 2851.2C7395.8 3054.37 7326.58 3241.32 7198.07 3377.46C7069.58 3513.6 6881.75 3599 6644.4 3599V3601C6882.25 3601 7070.62 3515.4 7199.53 3378.84C7328.42 3242.28 7397.8 3054.83 7397.8 2851.2H7395.8ZM9077.18 4094.2C9365.44 4094.2 9596.11 3989.7 9754.71 3822.99C9913.3 3656.29 9999.78 3427.43 9999.78 3178.8H9997.78C9997.78 3426.97 9911.47 3655.31 9753.26 3821.61C9595.06 3987.9 9364.93 4092.2 9077.18 4092.2V4094.2ZM9999.78 3178.8C9999.78 2931.97 9913.3 2704.01 9754.71 2537.76C9596.11 2371.5 9365.44 2267 9077.18 2267V2269C9364.93 2269 9595.06 2373.3 9753.26 2539.14C9911.47 2704.99 9997.78 2932.43 9997.78 3178.8H9999.78ZM9077.18 2267C8504.19 2267 8158.18 2685.1 8158.18 3178.8H8160.18C8160.18 2686.1 8505.38 2269 9077.18 2269V2267ZM8158.18 3178.8C8158.18 3427.43 8244.67 3656.29 8402.81 3822.99C8560.96 3989.7 8790.73 4094.2 9077.18 4094.2V4092.2C8791.24 4092.2 8562.01 3987.9 8404.26 3821.61C8246.5 3655.31 8160.18 3426.97 8160.18 3178.8H8158.18ZM9077.18 3685.4C8935.29 3685.4 8824.87 3627.04 8749.91 3534.57C8674.93 3442.08 8635.38 3315.42 8635.38 3178.8H8633.38C8633.38 3315.78 8673.04 3442.92 8748.36 3535.83C8823.7 3628.76 8934.68 3687.4 9077.18 3687.4V3685.4ZM8635.38 3178.8C8635.38 3043.99 8674.93 2918.22 8749.91 2826.18C8824.87 2734.16 8935.29 2675.8 9077.18 2675.8V2673.8C8934.68 2673.8 8823.7 2732.44 8748.36 2824.92C8673.04 2917.38 8633.38 3043.61 8633.38 3178.8H8635.38ZM9077.18 2675.8C9219.08 2675.8 9330.4 2734.16 9406.26 2826.19C9482.14 2918.23 9522.58 3043.99 9522.58 3178.8H9524.58C9524.58 3043.61 9484.03 2917.37 9407.81 2824.91C9331.57 2732.44 9219.69 2673.8 9077.18 2673.8V2675.8ZM9522.58 3178.8C9522.58 3315.41 9482.14 3442.08 9406.26 3534.57C9330.4 3627.04 9219.08 3685.4 9077.18 3685.4V3687.4C9219.69 3687.4 9331.57 3628.76 9407.81 3535.83C9484.03 3442.92 9524.58 3315.79 9524.58 3178.8H9522.58ZM10348.8 1648.8V1647.8H10347.8V1648.8H10348.8ZM10348.8 4050H10347.8V4051H10348.8V4050ZM10860 3600H10859V3601H10860V3600ZM10860 2098.8V2097.8H10859V2098.8H10860ZM11295.6 4051C11672 4051 11990.8 3932.13 12215.6 3722.68C12440.4 3513.23 12571 3213.25 12571 2851.2H12569C12569 3212.75 12438.6 3512.17 12214.2 3721.22C11989.9 3930.27 11671.6 4049 11295.6 4049V4051ZM12571 2851.2C12571 2489.15 12440.4 2188.28 12215.6 1977.92C11990.8 1767.57 11672 1647.8 11295.6 1647.8V1649.8C11671.6 1649.8 11989.9 1769.43 12214.2 1979.38C12438.6 2189.32 12569 2489.65 12569 2851.2H12571ZM11295.6 1647.8H10348.8V1649.8H11295.6V1647.8ZM10347.8 1648.8V4050H10349.8V1648.8H10347.8ZM10348.8 4051H11295.6V4049H10348.8V4051ZM11295.6 3599H10860V3601H11295.6V3599ZM10861 3600V2098.8H10859V3600H10861ZM10860 2099.8H11295.6V2097.8H10860V2099.8ZM11295.6 2099.8C11541.9 2099.8 11729.8 2181.62 11856 2316.38C11982.2 2451.16 12047 2639 12047 2851.2H12049C12049 2638.6 11984.1 2450.24 11857.5 2315.02C11730.8 2179.78 11542.4 2097.8 11295.6 2097.8V2099.8ZM12047 2851.2C12047 3054.37 11977.8 3241.32 11849.2 3377.46C11720.7 3513.6 11532.9 3599 11295.6 3599V3601C11533.4 3601 11721.8 3515.4 11850.7 3378.84C11979.6 3242.28 12049 3054.83 12049 2851.2H12047ZM15048.9 4050V4051H15050.4L15049.8 4049.64L15048.9 4050ZM14123.7 1648.8L14124.6 1648.44L14124.4 1647.8H14123.7V1648.8ZM13482.9 1648.8V1647.8H13482.2L13482 1648.44L13482.9 1648.8ZM12554.1 4050L12553.2 4049.64L12552.7 4051H12554.1V4050ZM13137.3 4050V4051H13138L13138.2 4050.35L13137.3 4050ZM13288.5 3643.2V3642.2H13287.8L13287.6 3642.85L13288.5 3643.2ZM14318.1 3643.2L14319 3642.86L14318.8 3642.2H14318.1V3643.2ZM14465.7 4050L14464.8 4050.34L14465 4051H14465.7V4050ZM14177.7 3193.2V3194.2H14179.1L14178.6 3192.86L14177.7 3193.2ZM13428.9 3193.2L13428 3192.86L13427.5 3194.2H13428.9V3193.2ZM13803.3 2160L13804.2 2159.66L13803.3 2157.06L13802.4 2159.66L13803.3 2160ZM15049.8 4049.64L14124.6 1648.44L14122.8 1649.16L15048 4050.36L15049.8 4049.64ZM14123.7 1647.8H13482.9V1649.8H14123.7V1647.8ZM13482 1648.44L12553.2 4049.64L12555 4050.36L13483.8 1649.16L13482 1648.44ZM12554.1 4051H13137.3V4049H12554.1V4051ZM13138.2 4050.35L13289.4 3643.55L13287.6 3642.85L13136.4 4049.65L13138.2 4050.35ZM13288.5 3644.2H14318.1V3642.2H13288.5V3644.2ZM14317.2 3643.54L14464.8 4050.34L14466.6 4049.66L14319 3642.86L14317.2 3643.54ZM14465.7 4051H15048.9V4049H14465.7V4051ZM14177.7 3192.2H13428.9V3194.2H14177.7V3192.2ZM13429.8 3193.54L13804.2 2160.34L13802.4 2159.66L13428 3192.86L13429.8 3193.54ZM13802.4 2160.34L14176.8 3193.54L14178.6 3192.86L13804.2 2159.66L13802.4 2160.34ZM16285.2 4094.2C17012.9 4094.2 17542.6 3575.37 17542.6 2851.2H17540.6C17540.6 3574.23 17011.9 4092.2 16285.2 4092.2V4094.2ZM17542.6 2851.2C17542.6 2127.03 17012.9 1608.2 16285.2 1608.2V1610.2C17011.9 1610.2 17540.6 2128.17 17540.6 2851.2H17542.6ZM16285.2 1608.2C15561.1 1608.2 15031.4 2127.04 15031.4 2851.2H15033.4C15033.4 2128.16 15562.1 1610.2 16285.2 1610.2V1608.2ZM15031.4 2851.2C15031.4 3575.36 15561.1 4094.2 16285.2 4094.2V4092.2C15562.1 4092.2 15033.4 3574.24 15033.4 2851.2H15031.4ZM16285.2 3638.6C16064.1 3638.6 15882.5 3553.21 15756.3 3412.13C15630 3271.04 15559 3074.19 15559 2851.2H15557C15557 3074.61 15628.2 3271.96 15754.8 3413.47C15881.5 3554.99 16063.5 3640.6 16285.2 3640.6V3638.6ZM15559 2851.2C15559 2626.41 15630 2429.56 15756.3 2288.92C15882.5 2148.29 16064.1 2063.8 16285.2 2063.8V2061.8C16063.5 2061.8 15881.5 2146.51 15754.8 2287.58C15628.2 2428.64 15557 2625.99 15557 2851.2H15559ZM16285.2 2063.8C16506.3 2063.8 16688.8 2148.29 16815.9 2288.92C16943.1 2429.56 17015 2626.41 17015 2851.2H17017C17017 2625.99 16944.9 2428.64 16817.4 2287.58C16689.8 2146.51 16506.9 2061.8 16285.2 2061.8V2063.8ZM17015 2851.2C17015 3074.19 16943.1 3271.04 16815.9 3412.13C16688.8 3553.21 16506.3 3638.6 16285.2 3638.6V3640.6C16506.9 3640.6 16689.8 3554.99 16817.4 3413.47C16944.9 3271.96 17017 3074.61 17017 2851.2H17015Z" fill="black"/>
</g>
<defs>
<filter id="filter0_d_57_170" x="1510.96" y="569.818" width="965.844" height="927.33" filterUnits="userSpaceOnUse" color-interpolation-filters="sRGB">
<feFlood flood-opacity="0" result="BackgroundImageFix"/>
<feColorMatrix in="SourceAlpha" type="matrix" values="0 0 0 0 0 0 0 0 0 0 0 0 0 0 0 0 0 0 127 0" result="hardAlpha"/>
<feOffset dy="4"/>
<feGaussianBlur stdDeviation="6"/>
<feComposite in2="hardAlpha" operator="out"/>
<feColorMatrix type="matrix" values="0 0 0 0 0 0 0 0 0 0 0 0 0 0 0 0 0 0 0.25 0"/>
<feBlend mode="normal" in2="BackgroundImageFix" result="effect1_dropShadow_57_170"/>
<feBlend mode="normal" in="SourceGraphic" in2="effect1_dropShadow_57_170" result="shape"/>
</filter>
<filter id="filter1_d_57_170" x="650.32" y="3168.67" width="965.844" height="927.328" filterUnits="userSpaceOnUse" color-interpolation-filters="sRGB">
<feFlood flood-opacity="0" result="BackgroundImageFix"/>
<feColorMatrix in="SourceAlpha" type="matrix" values="0 0 0 0 0 0 0 0 0 0 0 0 0 0 0 0 0 0 127 0" result="hardAlpha"/>
<feOffset dy="4"/>
<feGaussianBlur stdDeviation="6"/>
<feComposite in2="hardAlpha" operator="out"/>
<feColorMatrix type="matrix" values="0 0 0 0 0 0 0 0 0 0 0 0 0 0 0 0 0 0 0.25 0"/>
<feBlend mode="normal" in2="BackgroundImageFix" result="effect1_dropShadow_57_170"/>
<feBlend mode="normal" in="SourceGraphic" in2="effect1_dropShadow_57_170" result="shape"/>
</filter>
<filter id="filter2_d_57_170" x="3358.93" y="3992.68" width="965.844" height="927.33" filterUnits="userSpaceOnUse" color-interpolation-filters="sRGB">
<feFlood flood-opacity="0" result="BackgroundImageFix"/>
<feColorMatrix in="SourceAlpha" type="matrix" values="0 0 0 0 0 0 0 0 0 0 0 0 0 0 0 0 0 0 127 0" result="hardAlpha"/>
<feOffset dy="4"/>
<feGaussianBlur stdDeviation="6"/>
<feComposite in2="hardAlpha" operator="out"/>
<feColorMatrix type="matrix" values="0 0 0 0 0 0 0 0 0 0 0 0 0 0 0 0 0 0 0.25 0"/>
<feBlend mode="normal" in2="BackgroundImageFix" result="effect1_dropShadow_57_170"/>
<feBlend mode="normal" in="SourceGraphic" in2="effect1_dropShadow_57_170" result="shape"/>
</filter>
<filter id="filter3_d_57_170" x="4222.28" y="1394.25" width="965.844" height="927.328" filterUnits="userSpaceOnUse" color-interpolation-filters="sRGB">
<feFlood flood-opacity="0" result="BackgroundImageFix"/>
<feColorMatrix in="SourceAlpha" type="matrix" values="0 0 0 0 0 0 0 0 0 0 0 0 0 0 0 0 0 0 127 0" result="hardAlpha"/>
<feOffset dy="4"/>
<feGaussianBlur stdDeviation="6"/>
<feComposite in2="hardAlpha" operator="out"/>
<feColorMatrix type="matrix" values="0 0 0 0 0 0 0 0 0 0 0 0 0 0 0 0 0 0 0.25 0"/>
<feBlend mode="normal" in2="BackgroundImageFix" result="effect1_dropShadow_57_170"/>
<feBlend mode="normal" in="SourceGraphic" in2="effect1_dropShadow_57_170" result="shape"/>
</filter>
<filter id="filter4_d_57_170" x="5693.6" y="1609.2" width="11852" height="2492" filterUnits="userSpaceOnUse" color-interpolation-filters="sRGB">
<feFlood flood-opacity="0" result="BackgroundImageFix"/>
<feColorMatrix in="SourceAlpha" type="matrix" values="0 0 0 0 0 0 0 0 0 0 0 0 0 0 0 0 0 0 127 0" result="hardAlpha"/>
<feOffset dy="4"/>
<feGaussianBlur stdDeviation="2"/>
<feComposite in2="hardAlpha" operator="out"/>
<feColorMatrix type="matrix" values="0 0 0 0 0 0 0 0 0 0 0 0 0 0 0 0 0 0 0.25 0"/>
<feBlend mode="normal" in2="BackgroundImageFix" result="effect1_dropShadow_57_170"/>
<feBlend mode="normal" in="SourceGraphic" in2="effect1_dropShadow_57_170" result="shape"/>
</filter>
<linearGradient id="paint0_linear_57_170" x1="126.573" y1="0" x2="126.573" y2="1304.09" gradientUnits="userSpaceOnUse">
<stop stop-color="#4BA8FD"/>
<stop offset="1" stop-color="#4457FC"/>
</linearGradient>
<linearGradient id="paint1_linear_57_170" x1="2655.77" y1="3531.95" x2="3528.93" y2="2647.31" gradientUnits="userSpaceOnUse">
<stop stop-color="#7381FF"/>
<stop offset="1" stop-color="#4560FD"/>
</linearGradient>
<linearGradient id="paint2_linear_57_170" x1="2064.37" y1="2479.23" x2="2965.69" y2="3418.98" gradientUnits="userSpaceOnUse">
<stop stop-color="#4B8FFD"/>
<stop offset="1" stop-color="#6877FF"/>
</linearGradient>
<linearGradient id="paint3_linear_57_170" x1="3170.44" y1="1951.9" x2="2276.18" y2="2863.85" gradientUnits="userSpaceOnUse">
<stop stop-color="#4A97FD"/>
<stop offset="1" stop-color="#498EFD"/>
</linearGradient>
</defs>
</svg>
