<svg width="250" height="76" fill="none" xmlns="http://www.w3.org/2000/svg"><g clip-path="url(#a)"><path d="m39.85 28.1-1.761 1.69a.498.498 0 0 0 0 .724L50.3 42.227c.208.2.546.2.755 0l1.762-1.69a.498.498 0 0 0 0-.725L40.606 28.1a.55.55 0 0 0-.756 0Z" fill="url(#b)"/><path d="M35.524 48.192a.498.498 0 0 1 0-.725l12.63-12.114 2.518 2.414L38.041 49.88a.55.55 0 0 1-.756 0l-1.761-1.689Z" fill="url(#c)"/><path d="M27.563 35.728a.498.498 0 0 1 0-.725l1.761-1.69a.55.55 0 0 1 .756 0L42.66 45.382l-2.517 2.414-12.581-12.067Z" fill="url(#d)"/><path d="m29.717 37.79 12.648-12.13a.55.55 0 0 1 .756 0l1.761 1.69c.209.2.209.524 0 .724l-12.648 12.13-2.517-2.414Z" fill="url(#e)"/><path fill-rule="evenodd" clip-rule="evenodd" d="M32.999 33.629c-.407.39-1.066.39-1.472 0l-3.594-3.447a.012.012 0 0 1 0-.018.012.012 0 0 0 0-.019l-.061-.058c-2.563-2.458-3.628-5.808-3.194-9.008 2.776 1.092 6.083.557 8.337-1.605 2.177-2.088 2.772-5.119 1.784-7.722 3.2-.275 6.498.761 8.947 3.11l.07.068 3.604 3.456a.97.97 0 0 1 0 1.411L32.999 33.63Z" fill="#4A96FD"/><g filter="url(#f)"><path d="M32.059 18.584c-2.534 2.43-6.642 2.43-9.176 0s-2.534-6.37 0-8.8c2.534-2.43 6.642-2.43 9.176 0s2.534 6.37 0 8.8Z" fill="#4A96FD"/></g><path d="M29.676 31.872s5.108-6.53 6.707-11.117c1.6-4.587 2.019-8.758 2.019-8.758s1.25.268 2.568.916c.79.388 1.614.949 2.207 1.458.507.434.86.798 1.265 1.18.28.263 1.947 1.814 2.952 2.748a.982.982 0 0 1 .012 1.44l-14.43 13.866a1.087 1.087 0 0 1-1.492.001l-1.808-1.734Z" fill="#fff" fill-opacity=".2"/><path fill-rule="evenodd" clip-rule="evenodd" d="M35.888 44.689a.97.97 0 0 1 0 1.411l-3.594 3.448a.013.013 0 0 1-.02 0 .014.014 0 0 0-.018 0l-.06.058c-2.563 2.458-6.057 3.48-9.393 3.063 1.138-2.662.58-5.834-1.673-7.996-2.177-2.088-5.338-2.658-8.051-1.71-.288-3.07.793-6.233 3.242-8.582l.07-.067 3.604-3.457a1.072 1.072 0 0 1 1.472 0l14.42 13.832Z" fill="#508BFE"/><g filter="url(#g)"><path d="M20.201 45.59c2.534 2.43 2.534 6.37 0 8.801-2.534 2.43-6.642 2.43-9.176 0-2.533-2.43-2.533-6.37 0-8.8 2.534-2.43 6.642-2.43 9.176 0Z" fill="#508BFE"/></g><path d="M34.056 47.876s-6.808-4.9-11.59-6.433c-4.784-1.534-9.132-1.936-9.132-1.936s.28-1.199.955-2.463c.405-.758.99-1.548 1.52-2.117.453-.486.832-.825 1.23-1.214.275-.268 1.891-1.867 2.865-2.83a1.086 1.086 0 0 1 1.503-.012l14.456 13.84a.983.983 0 0 1 0 1.431l-1.807 1.734Z" fill="#fff" fill-opacity=".2"/><path fill-rule="evenodd" clip-rule="evenodd" d="M47.404 41.9a1.072 1.072 0 0 1 1.471 0l3.595 3.447a.013.013 0 0 1 0 .018.012.012 0 0 0 0 .017l.06.059c2.564 2.458 3.628 5.808 3.194 9.008-2.775-1.092-6.083-.557-8.337 1.605-2.176 2.088-2.771 5.119-1.784 7.722-3.199.275-6.498-.761-8.947-3.11l-.035-.034a5.637 5.637 0 0 1-.035-.034l-3.603-3.456a.97.97 0 0 1 0-1.411l14.42-13.832Z" fill="#6E7EFF"/><g filter="url(#h)"><path d="M48.344 56.944c2.533-2.43 6.642-2.43 9.176 0 2.533 2.43 2.533 6.37 0 8.8-2.534 2.43-6.643 2.43-9.176 0-2.534-2.43-2.534-6.37 0-8.8Z" fill="#6E7EFF"/></g><path d="M50.728 43.656s-5.108 6.53-6.707 11.117c-1.6 4.587-2.019 8.758-2.019 8.758s-1.25-.268-2.568-.916a11.179 11.179 0 0 1-2.207-1.458c-.507-.434-.86-.798-1.265-1.18-.28-.263-1.947-1.814-2.952-2.748a.982.982 0 0 1-.012-1.44l14.43-13.866a1.087 1.087 0 0 1 1.492-.001l1.808 1.734Z" fill="#fff" fill-opacity=".2"/><path fill-rule="evenodd" clip-rule="evenodd" d="M44.555 30.845a.97.97 0 0 1 0-1.411l3.594-3.448a.014.014 0 0 1 .019 0 .014.014 0 0 0 .019 0l.06-.058c2.563-2.458 6.057-3.48 9.393-3.063-1.139 2.662-.58 5.834 1.673 7.996 2.177 2.088 5.337 2.658 8.051 1.71.287 3.07-.793 6.233-3.242 8.582a8.993 8.993 0 0 1-.07.067l-3.605 3.457c-.406.39-1.065.39-1.471 0L44.555 30.845Z" fill="#4560FD"/><g filter="url(#i)"><path d="M60.24 29.944c-2.534-2.43-2.534-6.37 0-8.801 2.534-2.43 6.642-2.43 9.176 0s2.534 6.37 0 8.8c-2.534 2.43-6.642 2.43-9.176 0Z" fill="#4560FD"/></g><path d="M46.386 27.658s6.809 4.899 11.591 6.433c4.783 1.533 9.132 1.936 9.132 1.936s-.28 1.198-.956 2.463c-.404.758-.989 1.548-1.52 2.117-.452.486-.832.825-1.23 1.213-.274.269-1.89 1.867-2.865 2.831-.41.406-1.085.41-1.502.012l-14.457-13.84a.983.983 0 0 1 0-1.432l1.807-1.733Z" fill="#fff" fill-opacity=".2"/><g filter="url(#j)"><path d="M91.545 55.8c10.366 0 17.558-6.547 17.558-16.516 0-9.97-7.192-16.567-17.558-16.567H78.5v33.084h13.045Zm0-6.2h-6.002V28.917h6.002c6.795 0 10.366 4.514 10.366 10.367 0 5.604-3.819 10.316-10.366 10.316Zm33.518 6.796c7.937 0 12.698-5.754 12.698-12.599 0-6.795-4.761-12.549-12.698-12.549-7.886 0-12.648 5.754-12.648 12.55 0 6.844 4.762 12.598 12.648 12.598Zm0-5.605c-3.918 0-6.1-3.224-6.1-6.994 0-3.72 2.182-6.944 6.1-6.944 3.919 0 6.151 3.224 6.151 6.944 0 3.77-2.232 6.994-6.151 6.994Zm30.566 5.01c10.366 0 17.558-6.548 17.558-16.517 0-9.97-7.192-16.567-17.558-16.567h-13.045v33.084h13.045Zm0-6.2h-6.002V28.916h6.002c6.795 0 10.366 4.514 10.366 10.367 0 5.604-3.819 10.316-10.366 10.316Zm51.712 6.2-12.747-33.084h-8.829l-12.797 33.084h8.035l2.084-5.605h14.185l2.034 5.605h8.035Zm-12.003-11.805h-10.317l5.158-14.236 5.159 14.236Zm29.037 12.4c10.019 0 17.31-7.143 17.31-17.112 0-9.97-7.291-17.113-17.31-17.113-9.97 0-17.261 7.143-17.261 17.113 0 9.97 7.291 17.112 17.261 17.112Zm0-6.25c-6.101 0-10.019-4.712-10.019-10.862 0-6.2 3.918-10.863 10.019-10.863s10.069 4.663 10.069 10.863c0 6.15-3.968 10.862-10.069 10.862Z" fill="#6B8DFA"/><path d="M78.5 22.717v-.014h-.014v.014h.014Zm0 33.084h-.014v.013h.014v-.013Zm7.043-6.2h-.013v.013h.013V49.6Zm0-20.684v-.014h-.013v.014h.013Zm6.002 26.897c5.186 0 9.579-1.637 12.676-4.523 3.097-2.886 4.896-7.02 4.896-12.007h-.027c0 4.981-1.797 9.106-4.888 11.987-3.091 2.88-7.477 4.516-12.657 4.516v.027Zm17.572-16.53c0-4.989-1.799-9.134-4.896-12.032-3.097-2.898-7.49-4.549-12.676-4.549v.028c5.18 0 9.566 1.648 12.657 4.54 3.091 2.893 4.888 7.031 4.888 12.013h.027Zm-17.572-16.58H78.5v.027h13.045v-.028Zm-13.059.013v33.084h.028V22.717h-.028Zm.014 33.097h13.045v-.027H78.5v.027Zm13.045-6.227h-6.002v.027h6.002v-.027Zm-5.988.013V28.917h-.027V49.6h.027Zm-.014-20.67h6.002v-.027h-6.002v.028Zm6.002 0c3.394 0 5.982 1.128 7.721 2.985 1.74 1.857 2.632 4.445 2.632 7.369h.027c0-2.93-.893-5.525-2.638-7.388-1.746-1.863-4.341-2.993-7.742-2.993v.028Zm10.353 10.354c0 2.799-.954 5.375-2.725 7.25-1.77 1.876-4.358 3.053-7.628 3.053v.027c3.277 0 5.872-1.18 7.648-3.06 1.776-1.882 2.732-4.465 2.732-7.27h-.027Zm23.165 17.126c3.972 0 7.15-1.44 9.335-3.737 2.185-2.297 3.377-5.45 3.377-8.876h-.028c0 3.42-1.189 6.566-3.369 8.857-2.179 2.291-5.35 3.728-9.315 3.728v.028Zm12.712-12.613c0-3.4-1.192-6.541-3.377-8.832-2.185-2.29-5.363-3.73-9.335-3.73v.027c3.965 0 7.136 1.437 9.315 3.722 2.18 2.285 3.369 5.419 3.369 8.813h.028Zm-12.712-12.562c-7.894 0-12.661 5.76-12.661 12.562h.027c0-6.788 4.756-12.535 12.634-12.535v-.027Zm-12.661 12.562c0 3.426 1.191 6.58 3.37 8.876 2.179 2.297 5.345 3.737 9.291 3.737v-.028c-3.939 0-7.097-1.437-9.271-3.728-2.174-2.291-3.363-5.437-3.363-8.857h-.027Zm12.661 6.98c-1.954 0-3.476-.804-4.509-2.078-1.033-1.274-1.578-3.02-1.578-4.902h-.027c0 1.888.546 3.64 1.584 4.92 1.038 1.28 2.567 2.088 4.53 2.088v-.028Zm-6.087-6.98c0-1.857.545-3.59 1.578-4.858 1.033-1.268 2.555-2.072 4.509-2.072v-.027c-1.963 0-3.492.807-4.53 2.082-1.038 1.274-1.584 3.013-1.584 4.875h.027Zm6.087-6.93c1.956 0 3.489.804 4.535 2.072 1.045 1.268 1.602 3 1.602 4.858h.028c0-1.862-.559-3.602-1.609-4.876-1.051-1.274-2.592-2.081-4.556-2.081v.027Zm6.137 6.93c0 1.883-.557 3.628-1.602 4.902-1.046 1.274-2.579 2.078-4.535 2.078v.028c1.964 0 3.505-.808 4.556-2.089 1.05-1.28 1.609-3.031 1.609-4.919h-.028Zm11.384-21.08v-.014h-.014v.014h.014Zm0 33.084h-.014v.013h.014v-.013Zm7.043-6.2h-.014v.013h.014V49.6Zm0-20.684v-.014h-.014v.014h.014Zm6.002 26.897c5.186 0 9.578-1.637 12.675-4.523 3.097-2.886 4.897-7.02 4.897-12.007h-.028c0 4.981-1.796 9.106-4.888 11.987-3.09 2.88-7.476 4.516-12.656 4.516v.027Zm17.572-16.53c0-4.989-1.8-9.134-4.897-12.032-3.097-2.898-7.489-4.549-12.675-4.549v.028c5.18 0 9.566 1.648 12.656 4.54 3.092 2.893 4.888 7.031 4.888 12.013h.028Zm-17.572-16.58h-13.045v.027h13.045v-.028Zm-13.059.013v33.084h.027V22.717h-.027Zm.014 33.097h13.045v-.027h-13.045v.027Zm13.045-6.227h-6.002v.027h6.002v-.027Zm-5.988.013V28.917h-.028V49.6h.028Zm-.014-20.67h6.002v-.027h-6.002v.028Zm6.002 0c3.393 0 5.982 1.128 7.721 2.985 1.738 1.857 2.631 4.445 2.631 7.369h.028c0-2.93-.894-5.525-2.639-7.388-1.745-1.863-4.341-2.993-7.741-2.993v.028Zm10.352 10.354c0 2.799-.953 5.375-2.725 7.25-1.77 1.876-4.358 3.053-7.627 3.053v.027c3.276 0 5.872-1.18 7.648-3.06 1.776-1.882 2.732-4.465 2.732-7.27h-.028Zm41.36 16.517v.013h.021l-.009-.018-.012.005Zm-12.747-33.084.012-.005-.003-.009h-.009v.014Zm-8.829 0v-.014h-.01l-.003.01.013.004Zm-12.797 33.084-.012-.005-.007.018h.019v-.013Zm8.035 0v.013h.01l.003-.009-.013-.004Zm2.083-5.605v-.014h-.009l-.003.009.012.005Zm14.186 0 .013-.005-.003-.009h-.01v.014Zm2.034 5.605-.013.004.003.01h.01V55.8Zm-3.968-11.805v.014h.019l-.007-.019-.012.005Zm-10.317 0-.013-.005-.006.019h.019v-.014Zm5.158-14.236.013-.004-.013-.036-.012.036.012.004Zm17.174 26.036-12.747-33.084-.025.01 12.748 33.084.024-.01Zm-12.759-33.093h-8.829v.028h8.829v-.028Zm-8.842.01-12.796 33.083.024.01 12.797-33.084-.025-.01Zm-12.784 33.101h8.035v-.027h-8.035v.027Zm8.048-.009 2.083-5.604-.025-.01-2.083 5.605.025.01Zm2.07-5.596h14.186v-.027h-14.186v.027Zm14.174-.009 2.033 5.605.025-.01-2.033-5.604-.025.01Zm2.046 5.614h8.035v-.027h-8.035v.027Zm-3.968-11.832h-10.317v.028h10.317v-.028ZM185.033 44l5.159-14.235-.025-.01-5.159 14.236.025.01Zm5.134-14.235L195.325 44l.025-.009-5.158-14.235-.025.009Zm34.208 26.645c10.026 0 17.324-7.149 17.324-17.126h-.028c0 9.962-7.284 17.098-17.296 17.098v.028Zm17.324-17.126c0-9.978-7.298-17.126-17.324-17.126v.027c10.012 0 17.296 7.137 17.296 17.099h.028Zm-17.324-17.126c-9.977 0-17.275 7.148-17.275 17.126h.027c0-9.962 7.285-17.099 17.248-17.099v-.027ZM207.1 39.284c0 9.977 7.298 17.126 17.275 17.126v-.028c-9.963 0-17.248-7.136-17.248-17.098h-.027Zm17.275 10.848c-3.047 0-5.549-1.176-7.288-3.12-1.74-1.944-2.718-4.656-2.718-7.728h-.027c0 3.078.981 5.797 2.725 7.747 1.745 1.95 4.253 3.129 7.308 3.129v-.028Zm-10.006-10.848c0-3.097.978-5.81 2.718-7.747 1.739-1.938 4.241-3.102 7.288-3.102v-.028c-3.055 0-5.563 1.168-7.308 3.111-1.744 1.944-2.725 4.663-2.725 7.766h.027Zm10.006-10.85c3.046 0 5.56 1.165 7.312 3.103 1.752 1.937 2.743 4.65 2.743 7.747h.027c0-3.103-.993-5.822-2.75-7.766-1.758-1.944-4.278-3.11-7.332-3.11v.027Zm10.055 10.85c0 3.072-.991 5.784-2.743 7.728-1.752 1.944-4.266 3.12-7.312 3.12v.028c3.054 0 5.574-1.18 7.332-3.13 1.757-1.95 2.75-4.668 2.75-7.746h-.027Z" fill="#000"/></g></g><defs><filter id="f" x="20.982" y="7.961" width="12.977" height="16.446" filterUnits="userSpaceOnUse" color-interpolation-filters="sRGB"><feFlood flood-opacity="0" result="BackgroundImageFix"/><feBlend in="SourceGraphic" in2="BackgroundImageFix" result="shape"/><feColorMatrix in="SourceAlpha" values="0 0 0 0 0 0 0 0 0 0 0 0 0 0 0 0 0 0 127 0" result="hardAlpha"/><feOffset dy="4"/><feGaussianBlur stdDeviation="6"/><feComposite in2="hardAlpha" operator="arithmetic" k2="-1" k3="1"/><feColorMatrix values="0 0 0 0 0 0 0 0 0 0 0 0 0 0 0 0 0 0 0.25 0"/><feBlend in2="shape" result="effect1_innerShadow_1_2"/></filter><filter id="g" x="9.125" y="43.768" width="12.977" height="16.446" filterUnits="userSpaceOnUse" color-interpolation-filters="sRGB"><feFlood flood-opacity="0" result="BackgroundImageFix"/><feBlend in="SourceGraphic" in2="BackgroundImageFix" result="shape"/><feColorMatrix in="SourceAlpha" values="0 0 0 0 0 0 0 0 0 0 0 0 0 0 0 0 0 0 127 0" result="hardAlpha"/><feOffset dy="4"/><feGaussianBlur stdDeviation="6"/><feComposite in2="hardAlpha" operator="arithmetic" k2="-1" k3="1"/><feColorMatrix values="0 0 0 0 0 0 0 0 0 0 0 0 0 0 0 0 0 0 0.25 0"/><feBlend in2="shape" result="effect1_innerShadow_1_2"/></filter><filter id="h" x="46.443" y="55.121" width="12.977" height="16.446" filterUnits="userSpaceOnUse" color-interpolation-filters="sRGB"><feFlood flood-opacity="0" result="BackgroundImageFix"/><feBlend in="SourceGraphic" in2="BackgroundImageFix" result="shape"/><feColorMatrix in="SourceAlpha" values="0 0 0 0 0 0 0 0 0 0 0 0 0 0 0 0 0 0 127 0" result="hardAlpha"/><feOffset dy="4"/><feGaussianBlur stdDeviation="6"/><feComposite in2="hardAlpha" operator="arithmetic" k2="-1" k3="1"/><feColorMatrix values="0 0 0 0 0 0 0 0 0 0 0 0 0 0 0 0 0 0 0.25 0"/><feBlend in2="shape" result="effect1_innerShadow_1_2"/></filter><filter id="i" x="58.34" y="19.32" width="12.977" height="16.446" filterUnits="userSpaceOnUse" color-interpolation-filters="sRGB"><feFlood flood-opacity="0" result="BackgroundImageFix"/><feBlend in="SourceGraphic" in2="BackgroundImageFix" result="shape"/><feColorMatrix in="SourceAlpha" values="0 0 0 0 0 0 0 0 0 0 0 0 0 0 0 0 0 0 127 0" result="hardAlpha"/><feOffset dy="4"/><feGaussianBlur stdDeviation="6"/><feComposite in2="hardAlpha" operator="arithmetic" k2="-1" k3="1"/><feColorMatrix values="0 0 0 0 0 0 0 0 0 0 0 0 0 0 0 0 0 0 0.25 0"/><feBlend in2="shape" result="effect1_innerShadow_1_2"/></filter><filter id="j" x="78.486" y="22.158" width="163.213" height="38.252" filterUnits="userSpaceOnUse" color-interpolation-filters="sRGB"><feFlood flood-opacity="0" result="BackgroundImageFix"/><feBlend in="SourceGraphic" in2="BackgroundImageFix" result="shape"/><feColorMatrix in="SourceAlpha" values="0 0 0 0 0 0 0 0 0 0 0 0 0 0 0 0 0 0 127 0" result="hardAlpha"/><feOffset dy="4"/><feGaussianBlur stdDeviation="2"/><feComposite in2="hardAlpha" operator="arithmetic" k2="-1" k3="1"/><feColorMatrix values="0 0 0 0 0 0 0 0 0 0 0 0 0 0 0 0 0 0 0.25 0"/><feBlend in2="shape" result="effect1_innerShadow_1_2"/></filter><linearGradient id="b" x1="38.969" y1="28.945" x2="51.396" y2="41.901" gradientUnits="userSpaceOnUse"><stop stop-color="#4BA8FD"/><stop offset="1" stop-color="#4457FC"/></linearGradient><linearGradient id="c" x1="36.592" y1="48.663" x2="48.622" y2="36.474" gradientUnits="userSpaceOnUse"><stop stop-color="#7381FF"/><stop offset="1" stop-color="#4560FD"/></linearGradient><linearGradient id="d" x1="28.444" y1="34.159" x2="40.862" y2="47.106" gradientUnits="userSpaceOnUse"><stop stop-color="#4B8FFD"/><stop offset="1" stop-color="#6877FF"/></linearGradient><linearGradient id="e" x1="43.683" y1="26.893" x2="31.362" y2="39.458" gradientUnits="userSpaceOnUse"><stop stop-color="#4A97FD"/><stop offset="1" stop-color="#498EFD"/></linearGradient><clipPath id="a"><path fill="#fff" d="M0 0h250v75.517H0z"/></clipPath></defs></svg>