<svg width="17428" height="5146" viewBox="0 0 17428 5146" fill="none" xmlns="http://www.w3.org/2000/svg">
<rect width="253.146" height="1304.09" rx="38" transform="matrix(0.721709 -0.692197 0.721709 0.692197 2502.03 2020.41)" fill="url(#paint0_linear_57_170)"/>
<path d="M2343.25 3329.78C2328.1 3315.25 2328.1 3291.7 2343.25 3277.17L3260.01 2397.89L3442.71 2573.12L2525.95 3452.4C2510.8 3466.92 2486.24 3466.92 2471.1 3452.4L2343.25 3329.78Z" fill="url(#paint1_linear_57_170)"/>
<path d="M1765.45 2425.15C1750.3 2410.62 1750.3 2387.07 1765.45 2372.54L1893.3 2249.92C1908.44 2235.4 1933 2235.4 1948.14 2249.92L2861.29 3125.72L2678.59 3300.95L1765.45 2425.15Z" fill="url(#paint2_linear_57_170)"/>
<path d="M1921.81 2574.82L2839.8 1694.38C2854.94 1679.85 2879.5 1679.85 2894.65 1694.38L3022.5 1817C3037.64 1831.53 3037.64 1855.08 3022.5 1869.61L2104.51 2750.05L1921.81 2574.82Z" fill="url(#paint3_linear_57_170)"/>
<path fill-rule="evenodd" clip-rule="evenodd" d="M2160.11 2272.79C2130.61 2301.08 2082.79 2301.08 2053.3 2272.79L1792.42 2022.58C1792.04 2022.22 1792.04 2021.64 1792.42 2021.28C1792.8 2020.92 1792.79 2020.33 1792.41 2019.97C1790.93 2018.57 1789.45 2017.16 1787.98 2015.75C1601.97 1837.35 1524.71 1594.14 1556.2 1361.9C1757.64 1441.15 1997.71 1402.33 2161.3 1245.43C2319.3 1093.89 2362.46 873.906 2290.77 684.977C2522.97 664.978 2762.41 740.216 2940.15 910.692C2941.85 912.323 2943.54 913.959 2945.23 915.6C2945.23 915.601 2945.23 915.602 2945.23 915.602C2945.23 915.603 2945.24 915.602 2945.24 915.6C2945.24 915.599 2945.24 915.598 2945.24 915.598C2945.25 915.597 2945.25 915.598 2945.25 915.6L3206.8 1166.45C3236.3 1194.74 3236.3 1240.61 3206.8 1268.9L2160.11 2272.79Z" fill="#4A96FD"/>
<g filter="url(#filter0_d_57_170)">
<circle r="461.394" transform="matrix(-0.721709 0.692196 0.721709 0.692197 1758.88 861.483)" fill="#4A96FD"/>
</g>
<path d="M1918.91 2145.29C1918.91 2145.29 2289.67 1671.33 2405.73 1338.4C2521.78 1005.47 2552.24 702.763 2552.24 702.763C2552.24 702.763 2642.94 722.218 2738.66 769.248C2795.98 797.408 2855.79 838.095 2898.83 875.02C2935.6 906.554 2961.25 932.981 2990.66 960.683C3010.97 979.81 3131.95 1092.32 3204.9 1160.15C3235.58 1188.66 3235.96 1235.72 3205.77 1264.72L2158.42 2271.07C2128.53 2299.79 2080.03 2299.82 2050.12 2271.13L1918.91 2145.29Z" fill="white" fill-opacity="0.2"/>
<path fill-rule="evenodd" clip-rule="evenodd" d="M2369.72 3075.52C2399.22 3103.81 2399.22 3149.67 2369.72 3177.96L2108.84 3428.17C2108.47 3428.53 2107.86 3428.53 2107.49 3428.17C2107.11 3427.81 2106.5 3427.81 2106.12 3428.18C2104.66 3429.6 2103.2 3431.02 2101.72 3432.43C1915.71 3610.83 1662.14 3684.93 1420 3654.74C1502.63 3461.53 1462.15 3231.28 1298.56 3074.38C1140.56 2922.84 911.195 2881.45 714.211 2950.21C693.358 2727.5 771.804 2497.85 949.549 2327.37C951.249 2325.74 952.955 2324.12 954.667 2322.5C954.668 2322.5 954.669 2322.5 954.669 2322.5C954.67 2322.5 954.669 2322.5 954.667 2322.49C954.666 2322.49 954.665 2322.49 954.665 2322.49C954.664 2322.49 954.665 2322.48 954.667 2322.48L1216.22 2071.63C1245.71 2043.34 1293.53 2043.34 1323.03 2071.63L2369.72 3075.52Z" fill="#508BFE"/>
<g filter="url(#filter1_d_57_170)">
<circle r="461.394" transform="matrix(0.721709 0.692197 0.721709 -0.692196 898.242 3460.34)" fill="#508BFE"/>
</g>
<path d="M2236.79 3306.85C2236.79 3306.85 1742.62 2951.26 1395.5 2839.94C1048.37 2728.63 732.757 2699.42 732.757 2699.42C732.757 2699.42 753.042 2612.43 802.077 2520.62C831.438 2465.65 873.859 2408.28 912.358 2367C945.237 2331.74 972.79 2307.13 1001.67 2278.93C1021.62 2259.45 1138.92 2143.43 1209.63 2073.46C1239.37 2044.03 1288.43 2043.66 1318.67 2072.61L2367.94 3077.14C2397.88 3105.8 2397.9 3152.33 2367.98 3181.02L2236.79 3306.85Z" fill="white" fill-opacity="0.2"/>
<path fill-rule="evenodd" clip-rule="evenodd" d="M3205.63 2873.04C3235.12 2844.75 3282.94 2844.76 3312.44 2873.04L3573.32 3123.25C3573.69 3123.61 3573.69 3124.2 3573.32 3124.56C3572.94 3124.92 3572.94 3125.5 3573.32 3125.86C3574.8 3127.26 3576.28 3128.67 3577.76 3130.08C3763.76 3308.49 3841.03 3551.69 3809.54 3783.93C3608.1 3704.68 3368.03 3743.51 3204.44 3900.4C3046.44 4051.94 3003.28 4271.93 3074.97 4460.86C2842.77 4480.86 2603.33 4405.62 2425.58 4235.14C2423.88 4233.51 2422.19 4231.87 2420.51 4230.23C2420.51 4230.23 2420.5 4230.23 2420.5 4230.23C2420.49 4230.24 2420.49 4230.24 2420.49 4230.23L2158.94 3979.38C2129.44 3951.09 2129.44 3905.22 2158.94 3876.93L3205.63 2873.04Z" fill="#6E7EFF"/>
<g filter="url(#filter2_d_57_170)">
<ellipse rx="461.394" ry="461.394" transform="matrix(0.721709 -0.692196 -0.721709 -0.692197 3606.85 4284.35)" fill="#6E7EFF"/>
</g>
<path d="M3446.83 3000.54C3446.83 3000.54 3076.07 3474.5 2960.01 3807.43C2843.95 4140.36 2813.5 4443.07 2813.5 4443.07C2813.5 4443.07 2722.8 4423.61 2627.07 4376.58C2569.75 4348.42 2509.95 4307.73 2466.9 4270.81C2430.14 4239.28 2404.48 4212.85 2375.07 4185.15C2354.77 4166.02 2233.79 4053.51 2160.83 3985.68C2130.16 3957.17 2129.78 3910.11 2159.97 3881.11L3207.32 2874.76C3237.2 2846.04 3285.71 2846.01 3315.62 2874.7L3446.83 3000.54Z" fill="white" fill-opacity="0.2"/>
<path fill-rule="evenodd" clip-rule="evenodd" d="M2998.72 2070.74C2969.23 2042.45 2969.23 1996.58 2998.72 1968.29L3259.6 1718.08C3259.97 1717.72 3260.58 1717.72 3260.96 1718.08C3261.33 1718.44 3261.94 1718.44 3262.32 1718.08C3263.01 1717.4 3263.71 1716.72 3264.41 1716.05C3265.18 1715.31 3265.95 1714.56 3266.72 1713.82C3452.73 1535.42 3706.3 1461.32 3948.44 1491.52C3865.82 1684.72 3906.3 1914.98 4069.88 2071.87C4227.89 2223.41 4457.25 2264.81 4654.23 2196.05C4675.08 2418.75 4596.64 2648.4 4418.89 2818.88C4417.19 2820.51 4415.49 2822.13 4413.77 2823.75C4413.77 2823.75 4413.77 2823.76 4413.77 2823.76C4413.78 2823.76 4413.78 2823.77 4413.77 2823.77L4152.22 3074.62C4122.73 3102.91 4074.91 3102.91 4045.41 3074.62L2998.72 2070.74Z" fill="#4560FD"/>
<g filter="url(#filter3_d_57_170)">
<ellipse rx="461.394" ry="461.394" transform="matrix(-0.721709 -0.692197 -0.721709 0.692196 4470.2 1685.92)" fill="#4560FD"/>
</g>
<path d="M3131.65 1839.4C3131.65 1839.4 3625.82 2194.99 3972.95 2306.3C4320.07 2417.62 4635.69 2446.82 4635.69 2446.82C4635.69 2446.82 4615.4 2533.82 4566.37 2625.63C4537 2680.6 4494.58 2737.96 4456.08 2779.25C4423.21 2814.51 4395.65 2839.12 4366.77 2867.32C4346.83 2886.8 4229.52 3002.82 4158.81 3072.79C4129.07 3102.22 4080.01 3102.59 4049.77 3073.64L3000.5 2069.11C2970.56 2040.44 2970.54 1993.92 3000.46 1965.23L3131.65 1839.4Z" fill="white" fill-opacity="0.2"/>
<g filter="url(#filter4_d_57_170)">
<text fill="#6B8DFA" xml:space="preserve" style="white-space: pre" font-family="Proxima Nova" font-size="3600" font-weight="bold" letter-spacing="0em"><tspan x="5225" y="3882.1">DoDAO</tspan></text>
<text stroke="black" xml:space="preserve" style="white-space: pre" font-family="Proxima Nova" font-size="3600" font-weight="bold" letter-spacing="0em"><tspan x="5225" y="3882.1">DoDAO</tspan></text>
</g>
<defs>
<filter id="filter0_d_57_170" x="1275.96" y="401.818" width="965.844" height="927.33" filterUnits="userSpaceOnUse" color-interpolation-filters="sRGB">
<feFlood flood-opacity="0" result="BackgroundImageFix"/>
<feColorMatrix in="SourceAlpha" type="matrix" values="0 0 0 0 0 0 0 0 0 0 0 0 0 0 0 0 0 0 127 0" result="hardAlpha"/>
<feOffset dy="4"/>
<feGaussianBlur stdDeviation="6"/>
<feComposite in2="hardAlpha" operator="out"/>
<feColorMatrix type="matrix" values="0 0 0 0 0 0 0 0 0 0 0 0 0 0 0 0 0 0 0.25 0"/>
<feBlend mode="normal" in2="BackgroundImageFix" result="effect1_dropShadow_57_170"/>
<feBlend mode="normal" in="SourceGraphic" in2="effect1_dropShadow_57_170" result="shape"/>
</filter>
<filter id="filter1_d_57_170" x="415.32" y="3000.67" width="965.844" height="927.328" filterUnits="userSpaceOnUse" color-interpolation-filters="sRGB">
<feFlood flood-opacity="0" result="BackgroundImageFix"/>
<feColorMatrix in="SourceAlpha" type="matrix" values="0 0 0 0 0 0 0 0 0 0 0 0 0 0 0 0 0 0 127 0" result="hardAlpha"/>
<feOffset dy="4"/>
<feGaussianBlur stdDeviation="6"/>
<feComposite in2="hardAlpha" operator="out"/>
<feColorMatrix type="matrix" values="0 0 0 0 0 0 0 0 0 0 0 0 0 0 0 0 0 0 0.25 0"/>
<feBlend mode="normal" in2="BackgroundImageFix" result="effect1_dropShadow_57_170"/>
<feBlend mode="normal" in="SourceGraphic" in2="effect1_dropShadow_57_170" result="shape"/>
</filter>
<filter id="filter2_d_57_170" x="3123.93" y="3824.68" width="965.844" height="927.33" filterUnits="userSpaceOnUse" color-interpolation-filters="sRGB">
<feFlood flood-opacity="0" result="BackgroundImageFix"/>
<feColorMatrix in="SourceAlpha" type="matrix" values="0 0 0 0 0 0 0 0 0 0 0 0 0 0 0 0 0 0 127 0" result="hardAlpha"/>
<feOffset dy="4"/>
<feGaussianBlur stdDeviation="6"/>
<feComposite in2="hardAlpha" operator="out"/>
<feColorMatrix type="matrix" values="0 0 0 0 0 0 0 0 0 0 0 0 0 0 0 0 0 0 0.25 0"/>
<feBlend mode="normal" in2="BackgroundImageFix" result="effect1_dropShadow_57_170"/>
<feBlend mode="normal" in="SourceGraphic" in2="effect1_dropShadow_57_170" result="shape"/>
</filter>
<filter id="filter3_d_57_170" x="3987.28" y="1226.25" width="965.844" height="927.328" filterUnits="userSpaceOnUse" color-interpolation-filters="sRGB">
<feFlood flood-opacity="0" result="BackgroundImageFix"/>
<feColorMatrix in="SourceAlpha" type="matrix" values="0 0 0 0 0 0 0 0 0 0 0 0 0 0 0 0 0 0 127 0" result="hardAlpha"/>
<feOffset dy="4"/>
<feGaussianBlur stdDeviation="6"/>
<feComposite in2="hardAlpha" operator="out"/>
<feColorMatrix type="matrix" values="0 0 0 0 0 0 0 0 0 0 0 0 0 0 0 0 0 0 0.25 0"/>
<feBlend mode="normal" in2="BackgroundImageFix" result="effect1_dropShadow_57_170"/>
<feBlend mode="normal" in="SourceGraphic" in2="effect1_dropShadow_57_170" result="shape"/>
</filter>
<filter id="filter4_d_57_170" x="5458.6" y="1441.2" width="11852" height="2492" filterUnits="userSpaceOnUse" color-interpolation-filters="sRGB">
<feFlood flood-opacity="0" result="BackgroundImageFix"/>
<feColorMatrix in="SourceAlpha" type="matrix" values="0 0 0 0 0 0 0 0 0 0 0 0 0 0 0 0 0 0 127 0" result="hardAlpha"/>
<feOffset dy="4"/>
<feGaussianBlur stdDeviation="2"/>
<feComposite in2="hardAlpha" operator="out"/>
<feColorMatrix type="matrix" values="0 0 0 0 0 0 0 0 0 0 0 0 0 0 0 0 0 0 0.25 0"/>
<feBlend mode="normal" in2="BackgroundImageFix" result="effect1_dropShadow_57_170"/>
<feBlend mode="normal" in="SourceGraphic" in2="effect1_dropShadow_57_170" result="shape"/>
</filter>
<linearGradient id="paint0_linear_57_170" x1="126.573" y1="0" x2="126.573" y2="1304.09" gradientUnits="userSpaceOnUse">
<stop stop-color="#4BA8FD"/>
<stop offset="1" stop-color="#4457FC"/>
</linearGradient>
<linearGradient id="paint1_linear_57_170" x1="2420.77" y1="3363.95" x2="3293.93" y2="2479.31" gradientUnits="userSpaceOnUse">
<stop stop-color="#7381FF"/>
<stop offset="1" stop-color="#4560FD"/>
</linearGradient>
<linearGradient id="paint2_linear_57_170" x1="1829.37" y1="2311.23" x2="2730.69" y2="3250.98" gradientUnits="userSpaceOnUse">
<stop stop-color="#4B8FFD"/>
<stop offset="1" stop-color="#6877FF"/>
</linearGradient>
<linearGradient id="paint3_linear_57_170" x1="2935.44" y1="1783.9" x2="2041.18" y2="2695.85" gradientUnits="userSpaceOnUse">
<stop stop-color="#4A97FD"/>
<stop offset="1" stop-color="#498EFD"/>
</linearGradient>
</defs>
</svg>
