<svg width="7051" height="6902" viewBox="0 0 7051 6902" fill="none" xmlns="http://www.w3.org/2000/svg">
<rect width="7051" height="6901.17" fill="white"/>
<rect x="3351.95" y="2005.45" width="246" height="1267.28" rx="38" transform="rotate(-45 3351.95 2005.45)" fill="url(#paint0_linear_57_169)"/>
<path d="M3201.53 3306.01C3186.69 3291.17 3186.69 3267.11 3201.53 3252.27L4073.63 2380.17L4247.58 2554.12L3375.48 3426.22C3360.64 3441.06 3336.58 3441.06 3321.74 3426.22L3201.53 3306.01Z" fill="url(#paint1_linear_57_169)"/>
<path d="M2651.4 2407.99C2636.56 2393.15 2636.56 2369.09 2651.4 2354.25L2771.61 2234.04C2786.45 2219.2 2810.51 2219.2 2825.35 2234.04L3694 3102.69L3520.05 3276.64L2651.4 2407.99Z" fill="url(#paint2_linear_57_169)"/>
<path d="M2799.52 2555.81L3672.78 1682.55C3687.62 1667.71 3711.68 1667.71 3726.52 1682.55L3846.73 1802.75C3861.57 1817.59 3861.57 1841.66 3846.73 1856.5L2973.47 2729.76L2799.52 2555.81Z" fill="url(#paint3_linear_57_169)"/>
<path fill-rule="evenodd" clip-rule="evenodd" d="M3027.88 2254.5C2998.98 2283.4 2952.13 2283.4 2923.23 2254.5L2676.32 2007.59C2675.97 2007.24 2675.97 2006.66 2676.32 2006.3C2676.68 2005.94 2676.68 2005.36 2676.32 2005C2674.91 2003.61 2673.5 2002.21 2672.1 2000.81C2495 1823.71 2421.44 1582.28 2451.41 1351.74C2643.21 1430.41 2871.78 1391.87 3027.53 1236.11C3177.97 1085.68 3219.06 867.301 3150.8 679.751C3371.88 659.897 3599.86 734.587 3769.09 903.819C3770.71 905.438 3772.32 907.062 3773.92 908.692C3773.92 908.695 3773.93 908.695 3773.93 908.692C3773.94 908.689 3773.94 908.689 3773.94 908.692L4021.49 1156.24C4050.39 1185.14 4050.39 1231.99 4021.49 1260.89L3027.88 2254.5Z" fill="#4A96FD"/>
<g filter="url(#filter0_d_57_169)">
<circle r="448.369" transform="matrix(-0.707107 0.707107 0.707107 0.707107 2644.39 854.968)" fill="#4A96FD"/>
</g>
<path d="M2796.76 2129.41C2796.76 2129.41 3149.76 1658.91 3260.26 1328.41C3370.76 997.908 3399.75 697.408 3399.75 697.408C3399.75 697.408 3486.11 716.722 3577.25 763.408C3631.82 791.363 3688.77 831.753 3729.75 868.408C3764.75 899.712 3789.18 925.946 3817.18 953.446C3836.37 972.292 3950 1082.47 4019.61 1149.95C4049.66 1179.08 4050.04 1227.16 4020.47 1256.78L3026.29 2252.78C2997.01 2282.11 2949.48 2282.13 2920.18 2252.83L2796.76 2129.41Z" fill="white" fill-opacity="0.2"/>
<path fill-rule="evenodd" clip-rule="evenodd" d="M3224.5 3051.37C3253.4 3080.27 3253.4 3127.12 3224.5 3156.02L2977.59 3402.93C2977.24 3403.28 2976.66 3403.28 2976.3 3402.93C2975.94 3402.57 2975.36 3402.57 2975 3402.93C2973.61 3404.34 2972.22 3405.75 2970.81 3407.15C2793.71 3584.25 2552.28 3657.81 2321.74 3627.84C2400.41 3436.04 2361.87 3207.47 2206.11 3051.72C2055.68 2901.28 1837.3 2860.19 1649.75 2928.45C1629.9 2707.37 1704.59 2479.39 1873.82 2310.16C1875.44 2308.54 1877.06 2306.93 1878.69 2305.33C1878.7 2305.33 1878.7 2305.32 1878.69 2305.32C1878.69 2305.31 1878.69 2305.31 1878.69 2305.31L2126.24 2057.76C2155.14 2028.86 2201.99 2028.86 2230.89 2057.76L3224.5 3051.37Z" fill="#508BFE"/>
<g filter="url(#filter1_d_57_169)">
<circle r="448.369" transform="matrix(0.707107 0.707107 0.707107 -0.707107 1824.97 3434.86)" fill="#508BFE"/>
</g>
<path d="M3099.41 3282.49C3099.41 3282.49 2628.91 2929.49 2298.41 2818.99C1967.91 2708.49 1667.41 2679.5 1667.41 2679.5C1667.41 2679.5 1686.72 2593.14 1733.41 2502C1761.36 2447.43 1801.75 2390.48 1838.41 2349.5C1869.71 2314.5 1895.95 2290.07 1923.45 2262.07C1942.29 2242.88 2052.47 2129.25 2119.95 2059.64C2149.08 2029.59 2197.16 2029.21 2226.78 2058.78L3222.78 3052.96C3252.11 3082.24 3252.14 3129.77 3222.83 3159.07L3099.41 3282.49Z" fill="white" fill-opacity="0.2"/>
<path fill-rule="evenodd" clip-rule="evenodd" d="M4020.37 2853.33C4049.27 2824.43 4096.12 2824.43 4125.02 2853.33L4371.93 3100.23C4372.28 3100.59 4372.28 3101.17 4371.93 3101.52C4371.57 3101.88 4371.57 3102.47 4371.93 3102.82C4373.34 3104.21 4374.75 3105.61 4376.15 3107.01C4553.25 3284.11 4626.82 3525.54 4596.84 3756.09C4405.05 3677.42 4176.47 3715.96 4020.72 3871.71C3870.28 4022.15 3829.19 4240.52 3897.45 4428.07C3676.37 4447.93 3448.39 4373.24 3279.16 4204.01C3277.54 4202.39 3275.93 4200.76 3274.33 4199.13C3274.33 4199.13 3274.32 4199.13 3274.32 4199.13C3274.32 4199.14 3274.31 4199.14 3274.31 4199.13L3026.76 3951.59C2997.86 3922.69 2997.86 3875.83 3026.76 3846.93L4020.37 2853.33Z" fill="#6E7EFF"/>
<g filter="url(#filter2_d_57_169)">
<circle r="448.369" transform="matrix(0.707107 -0.707107 -0.707107 -0.707107 4403.86 4252.86)" fill="#6E7EFF"/>
</g>
<path d="M4251.49 2978.42C4251.49 2978.42 3898.49 3448.92 3787.99 3779.42C3677.49 4109.92 3648.5 4410.42 3648.5 4410.42C3648.5 4410.42 3562.14 4391.1 3471 4344.42C3416.43 4316.46 3359.48 4276.07 3318.5 4239.42C3283.5 4208.11 3259.07 4181.88 3231.07 4154.38C3211.88 4135.53 3098.26 4025.35 3028.65 3957.88C2998.59 3928.74 2998.21 3880.66 3027.78 3851.04L4021.96 2855.05C4051.24 2825.71 4098.77 2825.69 4128.08 2855L4251.49 2978.42Z" fill="white" fill-opacity="0.2"/>
<path fill-rule="evenodd" clip-rule="evenodd" d="M3826.33 2056.88C3797.43 2027.98 3797.43 1981.12 3826.33 1952.22L4073.23 1705.32C4073.59 1704.96 4074.17 1704.96 4074.53 1705.32C4074.89 1705.68 4075.47 1705.67 4075.83 1705.31C4077.22 1703.9 4078.61 1702.49 4080.02 1701.09C4257.12 1523.99 4498.55 1450.43 4729.09 1480.41C4650.42 1672.2 4688.96 1900.78 4844.71 2056.53C4995.15 2206.96 5213.53 2248.05 5401.08 2179.8C5420.93 2400.88 5346.24 2628.85 5177.01 2798.08C5175.39 2799.7 5173.76 2801.31 5172.13 2802.92C5172.13 2802.92 5172.13 2802.92 5172.13 2802.93C5172.14 2802.93 5172.14 2802.93 5172.13 2802.94L4924.59 3050.48C4895.69 3079.38 4848.84 3079.38 4819.94 3050.48L3826.33 2056.88Z" fill="#4560FD"/>
<g filter="url(#filter3_d_57_169)">
<circle r="448.369" transform="matrix(-0.707107 -0.707107 -0.707107 0.707107 5225.86 1673.39)" fill="#4560FD"/>
</g>
<path d="M3951.42 1825.75C3951.42 1825.75 4421.92 2178.75 4752.42 2289.25C5082.92 2399.75 5383.42 2428.74 5383.42 2428.74C5383.42 2428.74 5364.11 2515.1 5317.42 2606.24C5289.46 2660.82 5249.07 2717.76 5212.42 2758.74C5181.11 2793.74 5154.88 2818.17 5127.38 2846.17C5108.53 2865.36 4998.35 2978.99 4930.88 3048.6C4901.75 3078.65 4853.67 3079.04 4824.04 3049.47L3828.05 2055.28C3798.71 2026 3798.69 1978.48 3828 1949.17L3951.42 1825.75Z" fill="white" fill-opacity="0.2"/>
<path d="M1340.4 6111C1674.8 6111 1906.8 5899.8 1906.8 5578.2C1906.8 5256.6 1674.8 5043.8 1340.4 5043.8H919.6V6111H1340.4ZM1340.4 5911H1146.8V5243.8H1340.4C1559.6 5243.8 1674.8 5389.4 1674.8 5578.2C1674.8 5759 1551.6 5911 1340.4 5911ZM2421.64 6130.2C2677.64 6130.2 2831.24 5944.6 2831.24 5723.8C2831.24 5504.6 2677.64 5319 2421.64 5319C2167.24 5319 2013.64 5504.6 2013.64 5723.8C2013.64 5944.6 2167.24 6130.2 2421.64 6130.2ZM2421.64 5949.4C2295.24 5949.4 2224.84 5845.4 2224.84 5723.8C2224.84 5603.8 2295.24 5499.8 2421.64 5499.8C2548.04 5499.8 2620.04 5603.8 2620.04 5723.8C2620.04 5845.4 2548.04 5949.4 2421.64 5949.4ZM3407.59 6111C3741.99 6111 3973.99 5899.8 3973.99 5578.2C3973.99 5256.6 3741.99 5043.8 3407.59 5043.8H2986.79V6111H3407.59ZM3407.59 5911H3213.99V5243.8H3407.59C3626.79 5243.8 3741.99 5389.4 3741.99 5578.2C3741.99 5759 3618.79 5911 3407.59 5911ZM5075.74 6111L4664.54 5043.8H4379.74L3966.94 6111H4226.14L4293.34 5930.2H4750.94L4816.54 6111H5075.74ZM4688.54 5730.2H4355.74L4522.14 5271L4688.54 5730.2ZM5625.2 6130.2C5948.4 6130.2 6183.6 5899.8 6183.6 5578.2C6183.6 5256.6 5948.4 5026.2 5625.2 5026.2C5303.6 5026.2 5068.4 5256.6 5068.4 5578.2C5068.4 5899.8 5303.6 6130.2 5625.2 6130.2ZM5625.2 5928.6C5428.4 5928.6 5302 5776.6 5302 5578.2C5302 5378.2 5428.4 5227.8 5625.2 5227.8C5822 5227.8 5950 5378.2 5950 5578.2C5950 5776.6 5822 5928.6 5625.2 5928.6Z" fill="#6B8DFA"/>
<defs>
<filter id="filter0_d_57_169" x="2184.02" y="398.6" width="920.737" height="920.736" filterUnits="userSpaceOnUse" color-interpolation-filters="sRGB">
<feFlood flood-opacity="0" result="BackgroundImageFix"/>
<feColorMatrix in="SourceAlpha" type="matrix" values="0 0 0 0 0 0 0 0 0 0 0 0 0 0 0 0 0 0 127 0" result="hardAlpha"/>
<feOffset dy="4"/>
<feGaussianBlur stdDeviation="6"/>
<feComposite in2="hardAlpha" operator="out"/>
<feColorMatrix type="matrix" values="0 0 0 0 0 0 0 0 0 0 0 0 0 0 0 0 0 0 0.25 0"/>
<feBlend mode="normal" in2="BackgroundImageFix" result="effect1_dropShadow_57_169"/>
<feBlend mode="normal" in="SourceGraphic" in2="effect1_dropShadow_57_169" result="shape"/>
</filter>
<filter id="filter1_d_57_169" x="1364.6" y="2978.49" width="920.737" height="920.738" filterUnits="userSpaceOnUse" color-interpolation-filters="sRGB">
<feFlood flood-opacity="0" result="BackgroundImageFix"/>
<feColorMatrix in="SourceAlpha" type="matrix" values="0 0 0 0 0 0 0 0 0 0 0 0 0 0 0 0 0 0 127 0" result="hardAlpha"/>
<feOffset dy="4"/>
<feGaussianBlur stdDeviation="6"/>
<feComposite in2="hardAlpha" operator="out"/>
<feColorMatrix type="matrix" values="0 0 0 0 0 0 0 0 0 0 0 0 0 0 0 0 0 0 0.25 0"/>
<feBlend mode="normal" in2="BackgroundImageFix" result="effect1_dropShadow_57_169"/>
<feBlend mode="normal" in="SourceGraphic" in2="effect1_dropShadow_57_169" result="shape"/>
</filter>
<filter id="filter2_d_57_169" x="3943.49" y="3796.49" width="920.737" height="920.736" filterUnits="userSpaceOnUse" color-interpolation-filters="sRGB">
<feFlood flood-opacity="0" result="BackgroundImageFix"/>
<feColorMatrix in="SourceAlpha" type="matrix" values="0 0 0 0 0 0 0 0 0 0 0 0 0 0 0 0 0 0 127 0" result="hardAlpha"/>
<feOffset dy="4"/>
<feGaussianBlur stdDeviation="6"/>
<feComposite in2="hardAlpha" operator="out"/>
<feColorMatrix type="matrix" values="0 0 0 0 0 0 0 0 0 0 0 0 0 0 0 0 0 0 0.25 0"/>
<feBlend mode="normal" in2="BackgroundImageFix" result="effect1_dropShadow_57_169"/>
<feBlend mode="normal" in="SourceGraphic" in2="effect1_dropShadow_57_169" result="shape"/>
</filter>
<filter id="filter3_d_57_169" x="4765.49" y="1217.02" width="920.738" height="920.738" filterUnits="userSpaceOnUse" color-interpolation-filters="sRGB">
<feFlood flood-opacity="0" result="BackgroundImageFix"/>
<feColorMatrix in="SourceAlpha" type="matrix" values="0 0 0 0 0 0 0 0 0 0 0 0 0 0 0 0 0 0 127 0" result="hardAlpha"/>
<feOffset dy="4"/>
<feGaussianBlur stdDeviation="6"/>
<feComposite in2="hardAlpha" operator="out"/>
<feColorMatrix type="matrix" values="0 0 0 0 0 0 0 0 0 0 0 0 0 0 0 0 0 0 0.25 0"/>
<feBlend mode="normal" in2="BackgroundImageFix" result="effect1_dropShadow_57_169"/>
<feBlend mode="normal" in="SourceGraphic" in2="effect1_dropShadow_57_169" result="shape"/>
</filter>
<linearGradient id="paint0_linear_57_169" x1="3474.95" y1="2005.45" x2="3474.95" y2="3272.72" gradientUnits="userSpaceOnUse">
<stop stop-color="#4BA8FD"/>
<stop offset="1" stop-color="#4457FC"/>
</linearGradient>
<linearGradient id="paint1_linear_57_169" x1="3274.58" y1="3339.18" x2="4141.08" y2="2497.18" gradientUnits="userSpaceOnUse">
<stop stop-color="#7381FF"/>
<stop offset="1" stop-color="#4560FD"/>
</linearGradient>
<linearGradient id="paint2_linear_57_169" x1="2711.5" y1="2294.14" x2="3607.03" y2="3189.66" gradientUnits="userSpaceOnUse">
<stop stop-color="#4B8FFD"/>
<stop offset="1" stop-color="#6877FF"/>
</linearGradient>
<linearGradient id="paint3_linear_57_169" x1="3764.6" y1="1770.65" x2="2876.91" y2="2638.88" gradientUnits="userSpaceOnUse">
<stop stop-color="#4A97FD"/>
<stop offset="1" stop-color="#498EFD"/>
</linearGradient>
</defs>
</svg>
